<?xml version="1.0" encoding="UTF-8" standalone="no"?>
<svg
   width="64"
   height="64"
   version="1.1"
   id="svg29"
   sodipodi:docname="salix-update-notifier.svg"
   inkscape:version="1.1.2 (0a00cf5339, 2022-02-04)"
   xmlns:inkscape="http://www.inkscape.org/namespaces/inkscape"
   xmlns:sodipodi="http://sodipodi.sourceforge.net/DTD/sodipodi-0.dtd"
   xmlns="http://www.w3.org/2000/svg"
   xmlns:svg="http://www.w3.org/2000/svg">
  <sodipodi:namedview
     id="namedview31"
     pagecolor="#ffffff"
     bordercolor="#666666"
     borderopacity="1.0"
     inkscape:pageshadow="2"
     inkscape:pageopacity="0.0"
     inkscape:pagecheckerboard="0"
     showgrid="false"
     inkscape:zoom="10.234375"
     inkscape:cx="28.922137"
     inkscape:cy="31.951145"
     inkscape:window-width="1920"
     inkscape:window-height="1020"
     inkscape:window-x="0"
     inkscape:window-y="0"
     inkscape:window-maximized="1"
     inkscape:current-layer="g25" />
  <defs
     id="defs9">
    <linearGradient
       id="d"
       x1="23.683"
       x2="25.655"
       y1="-25.544"
       y2="75.049"
       gradientUnits="userSpaceOnUse">
      <stop
         stop-color="#111"
         offset="0"
         id="stop2" />
      <stop
         stop-color="#4c4c4c"
         offset=".54902"
         id="stop4" />
      <stop
         stop-color="#888"
         offset="1"
         id="stop6" />
    </linearGradient>
  </defs>
  <circle
     cx="32"
     cy="32"
     r="27"
     fill="#d35400"
     stroke="#883500"
     stroke-width="2"
     style="fill-rule:evenodd;paint-order:stroke fill markers;fill:#66ff00;fill-opacity:1;stroke:#a34443;stroke-opacity:1"
     id="circle11" />
  <circle
     cx="32"
     cy="32"
     fill="#d35400"
     style="fill:#ee5e43;fill-opacity:1;fill-rule:evenodd;paint-order:stroke fill markers"
     id="circle13"
     r="27" />
  <path
     d="m 6.5742,41 a 27,27 0 0 0 25.426,18 27,27 0 0 0 25.422,-18 z"
     fill="#ffffff"
     opacity="0.5"
     style="fill-rule:evenodd;paint-order:stroke fill markers"
     id="path15" />
  <g
     transform="translate(1.9596,-3.1304)"
     id="g25">
    <path
       d="m 30.04,48.13 c -1.662,0 -3,1.338 -3,3 0,1.662 1.338,3 3,3 a 2.993,2.993 0 0 0 2.813,-2 h 8.375 a 2.99,2.99 0 0 0 5.813,-1 c 0,-1.662 -1.338,-3 -3,-3 a 2.993,2.993 0 0 0 -2.813,2 h -8.375 a 2.99,2.99 0 0 0 -2.813,-2"
       fill="#232629"
       opacity="0.2"
       id="path19" />
    <path
       d="m 32.85,52.13 h 8.375 a 2.99,2.99 0 0 0 5.813,-1 c 0,-1.662 -1.338,-3 -3,-3 a 2.993,2.993 0 0 0 -2.813,2 H 32.85 c 0.188,1 0.188,1 0,2"
       opacity="0.5"
       id="path21" />
    <path
       d="m 16.04,48.13 c -1.662,0 -3,1.338 -3,3 0,1.662 1.338,3 3,3 a 2.993,2.993 0 0 0 2.813,-2 h 8.375 a 2.99,2.99 0 0 0 5.813,-1 c 0,-1.662 -1.338,-3 -3,-3 a 2.993,2.993 0 0 0 -2.813,2 h -8.375 a 2.99,2.99 0 0 0 -2.813,-2"
       fill="#d35400"
       id="path23"
       style="fill:#ee5e43;fill-opacity:1" />
  </g>
  <path
     d="m30.286 14v17.143l-7.7143-7.7143-2.5714 2.5714 12 12 12-12-2.5714-2.5714-7.7143 7.7143v-17.143z"
     fill="#fcfcfc"
     id="path27" />
</svg>
